<?xml version="1.0" encoding="utf-8"?>
<!-- Generator: Adobe Illustrator 28.2.0, SVG Export Plug-In . SVG Version: 6.00 Build 0)  -->
<svg version="1.1" id="Layer_1" xmlns="http://www.w3.org/2000/svg" xmlns:xlink="http://www.w3.org/1999/xlink" x="0px" y="0px"
	 viewBox="0 0 799.46 221.74" style="enable-background:new 0 0 799.46 221.74;" xml:space="preserve">
<style type="text/css">
	.st0{fill:url(#SVGID_1_);}
	.st1{fill:url(#SVGID_00000018220656110770656530000003725463292367203459_);}
	.st2{opacity:0.12;fill:#06238C;}
</style>
<g>
	<g>
		<linearGradient id="SVGID_1_" gradientUnits="userSpaceOnUse" x1="191.178" y1="34.7229" x2="109.9857" y2="168.7669">
			<stop  offset="1.438503e-07" style="stop-color:#0287E4"/>
			<stop  offset="1" style="stop-color:#0C27A8"/>
		</linearGradient>
		<path class="st0" d="M214.96,50.78v0.03c-6.38,107.35-83.98,131.96-83.98,131.96v-17.41l13.14-31.46l38.41-24.75
			c3.52-2.27,6.36-5.45,8.21-9.21l24.21-49.14l-0.12,0.11L192,74.64c-9,9.36-19.9,16.69-31.96,21.5l-29.06,11.59V37.4
			C183.57,37.4,214.96,50.78,214.96,50.78z"/>
		
			<linearGradient id="SVGID_00000064348238671343422480000013160497928033297081_" gradientUnits="userSpaceOnUse" x1="127.3717" y1="33.6007" x2="53.8399" y2="192.9195">
			<stop  offset="5.327789e-09" style="stop-color:#02CFFE"/>
			<stop  offset="1" style="stop-color:#165BE4"/>
		</linearGradient>
		<path style="fill:url(#SVGID_00000064348238671343422480000013160497928033297081_);" d="M130.98,37.4v70.33l-29.06-11.59
			C89.86,91.33,78.96,84,69.96,74.64L46.99,50.78C46.99,50.78,78.38,37.4,130.98,37.4z M130.98,182.77v-17.41l-13.15-31.46
			l-38.41-24.75c-3.52-2.27-6.36-5.45-8.21-9.21L46.99,50.78C53.36,158.16,130.98,182.77,130.98,182.77z"/>
		<path class="st2" d="M214.95,50.8l-0.06,0.17l-19.66,51.18c-2.25,4.57-5.71,8.44-9.99,11.2l-37.1,23.91l-17.16,41.07l-17.16-41.07
			l-37.1-23.91c-4.29-2.76-7.74-6.63-9.99-11.2L46.99,50.78l24.22,49.16c1.85,3.76,4.69,6.94,8.21,9.21l38.41,24.75l13.15,31.46
			l13.14-31.46l38.41-24.75c3.52-2.27,6.36-5.45,8.21-9.21L214.95,50.8z"/>
		<path class="st2" d="M69.96,74.64L46.99,50.78l24.24,23.35c8.82,9.16,19.92,15.65,31.72,20.36l28.03,10.55L159,94.49
			c11.81-4.71,22.9-11.2,31.72-20.36l24.11-23.22L192,74.64c-9,9.36-19.9,16.69-31.96,21.5l-29.06,11.59l-29.06-11.59
			C89.86,91.33,78.96,84,69.96,74.64z"/>
		<path class="st2" d="M214.96,50.79v0.02l-0.07,0.16l-21.9,50.08c-2.05,4.16-5.2,7.69-9.1,10.2l-37.76,24.33l-15.15,36.27
			l-15.15-36.27l-37.76-24.33c-3.9-2.51-7.05-6.04-9.1-10.2L46.99,50.78l24.22,49.16c1.85,3.76,4.69,6.94,8.21,9.21l38.41,24.75
			l13.15,31.46l13.14-31.46l38.41-24.75c3.52-2.27,6.36-5.45,8.21-9.21L214.96,50.79L214.96,50.79z"/>
	</g>
	<polygon class="st2" points="214.97,50.78 214.96,50.79 214.96,50.78 	"/>
	<g>
		<g>
			<path d="M282.82,137.19h-21.19c-1.51,0-2.41,1.24-2.41,2.48c0,0.76,0.34,1.58,1.24,2.06l18.37,10.32
				c3.85,2.13,6.26,6.19,6.26,10.59c0,6.67-5.5,12.11-12.18,12.11h-23.66v-9.29h22.5c1.93,0,3.1-1.58,3.1-3.16
				c0-1.03-0.48-2.06-1.58-2.68l-18.09-10.11c-3.65-2.06-5.92-5.92-5.92-10.11c0-6.4,5.16-11.56,11.56-11.56h22.01V137.19z"/>
			<path d="M321.92,127.84v9.36h-30.68v-9.36H321.92z M321.92,144.42v9.35h-21.33v11.69h21.33v9.36h-30.68v-30.41H321.92z"/>
			<path d="M370.19,165.4c-4.33,5.78-11.21,9.49-18.99,9.49c-13.07,0-23.66-10.59-23.66-23.66c0-13,10.59-23.66,23.66-23.66
				c7.43,0,14.03,3.44,18.37,8.81l-7.36,5.71c-2.61-3.16-6.6-5.16-11.01-5.16c-7.91,0-14.31,6.4-14.31,14.31s6.4,14.31,14.31,14.31
				c4.75,0,8.94-2.27,11.56-5.85L370.19,165.4z"/>
			<path d="M410.51,127.84v29.03c0,9.91-7.98,17.89-17.89,17.89c-9.91,0-17.96-7.98-17.96-17.89v-29.03h9.36v29.03
				c0,4.75,3.85,8.53,8.6,8.53c4.75,0,8.53-3.78,8.53-8.53v-29.03H410.51z"/>
			<path d="M434.32,159.41l-16.23,15.41v-46.98h26.62c5.09,0,9.15,4.13,9.15,9.22c0,2.48-1.03,4.88-2.82,6.6l-9.7,9.15l12.52,21.94
				h-10.73L434.32,159.41z M427.37,153.15l15.48-14.58c0.14-0.14,0.21-0.34,0.21-0.55c0-0.41-0.27-0.83-0.76-0.83h-14.93V153.15z"/>
			<path d="M459.96,174.82v-46.92h9.36v46.92H459.96z"/>
			<path d="M507.84,137.19h-12.31v37.63h-9.36v-37.63h-12.31v-9.29h33.98V137.19z"/>
			<path d="M535.25,151.37l-0.62,1.17v22.29h-9.36v-22.29l-0.62-1.17l-12.66-23.46h10.66l7.29,13.55l7.29-13.55h10.59L535.25,151.37
				z"/>
		</g>
		<g>
			<path d="M594.46,46.98v9.36h-30.68v-9.36H594.46z M594.46,63.56v9.35h-21.33v11.69h21.33v9.36h-30.68V63.56H594.46z"/>
			<path d="M637.72,93.97h-10.11l-9.49-22.7l-9.42,22.7h-10.11l19.54-46.98L637.72,93.97z"/>
			<path d="M682.94,63.63v17.95c-2.13,3.99-5.44,7.29-9.36,9.49c-3.37,1.86-7.29,2.96-11.49,2.96c-13,0-23.66-10.59-23.66-23.66
				c0-13,10.66-23.66,23.66-23.66c6.26,0,11.97,2.48,16.17,6.4l-7.5,5.92c-2.41-1.86-5.43-2.96-8.67-2.96
				c-7.91,0-14.31,6.4-14.31,14.31s6.4,14.31,14.31,14.31c4.68,0,8.87-2.27,11.49-5.78v-5.92h-11.49v-9.35H682.94z"/>
			<path d="M689.9,47.05h9.36v37.56h18.09v9.36H689.9V47.05z"/>
			<path d="M752.47,46.98v9.36h-30.68v-9.36H752.47z M752.47,63.56v9.35h-21.33v11.69h21.33v9.36h-30.68V63.56H752.47z"/>
			<rect x="721.79" y="52.22" width="9.36" height="23.91"/>
			<rect x="563.78" y="52.39" width="9.36" height="24.94"/>
		</g>
		<g>
			<path d="M306.69,46.98l-19.6,46.92l-9.42-22.63l-9.49,22.63l-19.61-46.92h10.11l9.49,22.7l4.4-10.59l5.09-12.11l5.02,12.11
				l4.4,10.59l9.49-22.7H306.69z"/>
			<path d="M341.6,46.98v9.36h-30.68v-9.36H341.6z M341.6,63.56v9.35h-21.33v11.69h21.33v9.36h-30.68V63.56H341.6z"/>
			<path d="M381.7,56.34h-21.19c-1.51,0-2.41,1.24-2.41,2.48c0,0.76,0.34,1.58,1.24,2.06l18.37,10.32
				c3.85,2.13,6.26,6.19,6.26,10.59c0,6.67-5.5,12.11-12.18,12.11h-23.66v-9.29h22.5c1.93,0,3.1-1.58,3.1-3.16
				c0-1.03-0.48-2.06-1.58-2.68l-18.09-10.11c-3.65-2.06-5.92-5.92-5.92-10.11c0-6.4,5.16-11.56,11.56-11.56h22.01V56.34z"/>
			<path d="M421.21,56.34H408.9v37.63h-9.36V56.34h-12.31v-9.29h33.98V56.34z"/>
			<path d="M456.37,46.98v9.36h-30.68v-9.36H456.37z M456.37,63.56v9.35h-21.33v11.69h21.33v9.36h-30.68V63.56H456.37z"/>
			<path d="M480.19,78.56l-16.23,15.41V46.98h26.62c5.09,0,9.15,4.13,9.15,9.22c0,2.48-1.03,4.88-2.82,6.6l-9.7,9.15l12.52,21.94
				h-10.73L480.19,78.56z M473.24,72.3l15.48-14.58c0.14-0.14,0.21-0.34,0.21-0.55c0-0.41-0.27-0.83-0.76-0.83h-14.93V72.3z"/>
			<path d="M541.55,47.05v46.92l-26.48-25.11v25.11h-9.36V47.05l26.48,25.18V47.05H541.55z"/>
			<rect x="425.69" y="53.37" width="9.36" height="24.89"/>
			<rect x="310.92" y="53.37" width="9.36" height="24.89"/>
		</g>
		<rect x="291.24" y="134.05" width="9.36" height="27.83"/>
	</g>
</g>
</svg>
